# xmcd CD database file
#
# Track frame offsets:
#	150
#	26462
#	48524
#	69958
#	93701
#	114128
#	148598
#	174642
#	196915
#	219145
#	246793
#
# Disc length: 3853 seconds
#
# Revision: 0
# Processed by: cddbd v1.5PL3 Copyright (c) Steve Scherf et al.
# Submitted via: CDex 1.51
#
DISCID=900f0b0b
DTITLE=Mark Pender Band - Mark Pender Band
DYEAR=2003
DGENRE=Jazz
TTITLE0=I'm Excessive
TTITLE1=Say You Love Me
TTITLE2=I Like It
TTITLE3=Let's Get it Together
TTITLE4=Oh Baby Please
TTITLE5=She Stipped Me
TTITLE6=We Are Meant to be Together
TTITLE7=You're the Only One
TTITLE8=Come On
TTITLE9=Hypnotize
TTITLE10=Bonus Track
EXTD=YEAR: 2003
EXTT0=
EXTT1=
EXTT2=
EXTT3=
EXTT4=
EXTT5=
EXTT6=
EXTT7=
EXTT8=
EXTT9=
EXTT10=
PLAYORDER=
